<?xml version="1.0" encoding="iso-8859-1"?>
<!-- Generator: Adobe Illustrator 19.0.0, SVG Export Plug-In . SVG Version: 6.00 Build 0)  -->
<svg xmlns="http://www.w3.org/2000/svg" xmlns:xlink="http://www.w3.org/1999/xlink" version="1.1" id="Capa_1" x="0px" y="0px" viewBox="0 0 512 512" style="enable-background:new 0 0 512 512;" xml:space="preserve" width="512px" height="512px">
<g>
	<g>
		<path d="M256,0C114.838,0,0,114.838,0,256c0,141.156,114.838,256,256,256c141.156,0,256-114.844,256-256    C512,114.838,397.156,0,256,0z M256,476.362c-121.508,0-220.362-98.854-220.362-220.362S134.492,35.638,256,35.638    c121.514,0,220.362,98.848,220.362,220.356S377.514,476.362,256,476.362z" fill="#FFFFFF"/>
	</g>
</g>
<g>
	<g>
		<path d="M351.783,186.714C318.266,140.628,307.8,82.758,323.053,27.94l-34.325-9.557c-18.193,65.36-5.72,134.355,34.153,189.185    c39.279,54.859,101.022,87.877,169.405,90.592l1.414-35.62C436.382,260.271,384.683,232.669,351.783,186.714z" fill="#FFFFFF"/>
	</g>
</g>
<g>
	<g>
		<path d="M178.891,311.976c-38.002-51.705-96.169-84.427-159.575-89.766l-2.994,35.513c53.154,4.479,101.943,31.944,133.845,75.357    c31.528,42.896,42.766,97.803,30.833,150.642l34.765,7.852C229.972,428.654,216.531,363.193,178.891,311.976z" fill="#FFFFFF"/>
	</g>
</g>
<g>
</g>
<g>
</g>
<g>
</g>
<g>
</g>
<g>
</g>
<g>
</g>
<g>
</g>
<g>
</g>
<g>
</g>
<g>
</g>
<g>
</g>
<g>
</g>
<g>
</g>
<g>
</g>
<g>
</g>
</svg>
