<?xml version="1.0"?>
<svg xmlns="http://www.w3.org/2000/svg" height="512px" viewBox="0 0 511.99976 511" width="512px"><path d="m497 422.480469h-15v-214.605469c10.019531-3.558594 18.65625-10.59375 24.070312-20.074219 12.308594-21.546875 4.792969-49.089843-16.773437-61.410156l-210.976563-119.988281c-13.773437-7.867188-30.882812-7.867188-44.625-.015625l-211.03125 120.019531c-21.542968 12.304688-29.054687 39.847656-16.742187 61.398438 5.414063 9.472656 13.882813 16.503906 24.066406 20.09375v289.585937c0 8.28125 6.714844 15 15 15h452.011719c8.285156 0 15-6.71875 15-15v-60.003906c0-8.28125-6.714844-15-15-15zm-459.480469-270.011719 211.03125-120.019531c2.292969-1.308594 4.863281-1.964844 7.433594-1.964844 2.582031 0 5.164063.660156 7.476563 1.980469l210.980468 119.988281c7.175782 4.101563 9.699219 13.246094 5.574219 20.464844-4.058594 7.109375-13.191406 9.734375-20.488281 5.5625l-203.535156-115.707031-203.597657 115.742187c-7.140625 4.109375-16.308593 1.605469-20.425781-5.597656-4.125-7.214844-1.589844-16.367188 5.550781-20.449219zm22.46875 55.445312c2.503907-.894531 4.949219-2.003906 7.296875-3.351562l188.707032-107.277344 188.675781 107.257813c2.34375 1.339843 4.800781 2.445312 7.332031 3.339843v214.597657h-46.003906c-8.28125 0-15 6.71875-15 15v45.003906h-30v-124.585937c17.460937-6.191407 30-22.863282 30-42.417969 0-11.515625-4.347656-22.035157-11.484375-30.003907 7.136719-7.964843 11.484375-18.484374 11.484375-30 0-24.8125-20.1875-45-45-45-19.558594 0-36.238282 12.539063-42.429688 30h-95.144531c-6.191406-17.460937-22.875-30-42.429687-30-24.816407 0-45.003907 20.1875-45.003907 45 0 11.515626 4.347657 22.035157 11.488281 30-7.140624 7.96875-11.488281 18.488282-11.488281 30.003907 0 19.554687 12.542969 36.226562 30.003907 42.417969v124.585937h-91.003907zm106.003907 62.5625c-8.273438 0-15-6.726562-15-15 0-8.269531 6.726562-15 15-15 8.269531 0 15 6.730469 15 15 0 8.285157 6.714843 15 15 15h120.003906c8.285156 0 15-6.714843 15-15 0-8.269531 6.730468-15 15-15 8.269531 0 15 6.730469 15 15 0 8.273438-6.730469 15-15 15-8.285156 0-15 6.71875-15 15 0 8.285157 6.714844 15.003907 15 15.003907 8.269531 0 15 6.726562 15 15 0 8.269531-6.730469 15-15 15-8.269532 0-15-6.730469-15-15 0-8.285157-6.714844-15-15-15h-120.003906c-8.285157 0-15 6.714843-15 15 0 8.269531-6.730469 15-15 15-8.273438 0-15-6.730469-15-15 0-8.273438 6.726562-15 15-15 8.285156 0 15-6.71875 15-15.003907 0-8.28125-6.714844-15-15-15zm15 87.425782c12.765624-4.527344 22.902343-14.65625 27.429687-27.421875h95.144531c4.527344 12.765625 14.664063 22.894531 27.429688 27.421875v124.582031h-150.003906zm301.007812 124.582031c-19.539062 0-41.851562 0-61.003906 0v-30.003906h61.003906zm0 0" fill="#FFFFFF"/></svg>
