<?xml version="1.0"?>
<svg xmlns="http://www.w3.org/2000/svg" height="512px" version="1.1" viewBox="0 0 724.33686 724" width="512px">
<g id="surface1">
<path d="M 362.183594 724.492188 C 562.191406 724.5 724.332031 562.363281 724.335938 362.367188 C 724.335938 266.296875 686.171875 174.164062 618.226562 106.238281 C 476.800781 -35.1875 247.503906 -35.1875 106.074219 106.238281 C -35.359375 247.671875 -35.359375 476.964844 106.074219 618.398438 C 173.84375 686.554688 266.070312 724.753906 362.183594 724.492188 Z M 604.203125 604.371094 C 540.460938 668.453125 453.824219 704.511719 363.441406 704.582031 C 363.984375 516.507812 516.339844 364.1875 704.414062 363.675781 C 703.964844 453.964844 667.960938 540.441406 604.203125 604.371094 Z M 19.890625 362.351562 C 19.890625 173.308594 173.136719 20.054688 362.183594 20.054688 L 364.828125 20.054688 C 365.445312 111.734375 329.390625 199.839844 264.6875 264.789062 C 199.714844 329.445312 111.617188 365.496094 19.953125 364.933594 C 19.953125 364.070312 19.890625 363.210938 19.890625 362.351562 Z M 22.402344 384.972656 C 118.457031 384.921875 210.59375 346.875 278.710938 279.144531 C 346.890625 210.652344 384.980469 117.820312 384.539062 21.179688 C 557.320312 32.375 694.46875 170.945312 703.886719 343.828125 C 505.261719 344.664062 344.464844 505.492188 343.664062 704.121094 C 170.722656 694.816406 32.015625 557.730469 20.679688 384.90625 Z M 22.402344 384.972656 " style=" fill-rule:nonzero;fill-opacity:1;" stroke="#FFFFFF" fill="#FFFFFF"/>
</g>
</svg>
